<svg xmlns="http://www.w3.org/2000/svg" viewBox="0 0 512 512" width="100%" height="100%">
  <defs>
    <linearGradient id="bgGrad" x1="0%" y1="0%" x2="100%" y2="100%">
      <stop offset="0%" stop-color="#0f172a" />
      <stop offset="100%" stop-color="#020617" />
    </linearGradient>
    <linearGradient id="rocketBody" x1="0%" y1="0%" x2="100%" y2="100%">
      <stop offset="0%" stop-color="#3b82f6" />
      <stop offset="100%" stop-color="#1d4ed8" />
    </linearGradient>
    <linearGradient id="flameGrad" x1="0%" y1="0%" x2="0%" y2="100%">
      <stop offset="0%" stop-color="#10b981" />
      <stop offset="100%" stop-color="#059669" />
    </linearGradient>
  </defs>
  <rect width="512" height="512" rx="112" fill="url(#bgGrad)" />
  <circle cx="256" cy="256" r="210" fill="none" stroke="#3b82f6" stroke-width="8" stroke-opacity="0.3" />
  
  <!-- Rocket Body -->
  <path d="M256 96 C256 96 340 180 350 290 C360 370 320 416 320 416 L256 376 L192 416 C192 416 152 370 162 290 C172 180 256 96 256 96 Z" fill="url(#rocketBody)" stroke="#60a5fa" stroke-width="10" />
  
  <!-- Window -->
  <circle cx="256" cy="240" r="48" fill="#0f172a" stroke="#60a5fa" stroke-width="12" />
  <circle cx="256" cy="240" r="28" fill="#60a5fa" opacity="0.8" />
  
  <!-- Fins -->
  <path d="M162 360 L106 416 H172 Z" fill="#1e40af" stroke="#3b82f6" stroke-width="8" />
  <path d="M350 360 L406 416 H340 Z" fill="#1e40af" stroke="#3b82f6" stroke-width="8" />
  
  <!-- Flame -->
  <path d="M256 416 L220 480 H292 Z" fill="url(#flameGrad)" />
</svg>
